<svg width="1200" height="630" viewBox="0 0 1200 630" fill="none" xmlns="http://www.w3.org/2000/svg" role="img" aria-labelledby="title desc">
  <title id="title">Browser Tool Safety Planner</title>
  <desc id="desc">A browser safety planner card with gates, checklist, and deterministic report blocks.</desc>
  <rect width="1200" height="630" rx="40" fill="#08111F"/>
  <rect x="86" y="86" width="1028" height="458" rx="32" fill="#0E1A2E" stroke="#1F3356" stroke-width="2"/>
  <rect x="86" y="86" width="1028" height="80" rx="32" fill="#12213A"/>
  <circle cx="130" cy="126" r="10" fill="#F25F4C"/>
  <circle cx="162" cy="126" r="10" fill="#F3C969"/>
  <circle cx="194" cy="126" r="10" fill="#66C78B"/>
  <rect x="104" y="204" width="368" height="284" rx="28" fill="#12213A" stroke="#223A61" stroke-width="2"/>
  <text x="136" y="256" fill="#8CC7FF" font-family="Inter, Arial, sans-serif" font-size="22" font-weight="700">Safety score</text>
  <text x="136" y="334" fill="#F6FAFF" font-family="Inter, Arial, sans-serif" font-size="78" font-weight="800">84</text>
  <text x="136" y="384" fill="#AFC2DF" font-family="Inter, Arial, sans-serif" font-size="24" font-weight="500">Ready / sandbox / block</text>
  <rect x="520" y="204" width="520" height="84" rx="22" fill="#12213A" stroke="#223A61" stroke-width="2"/>
  <text x="556" y="253" fill="#F6FAFF" font-family="Inter, Arial, sans-serif" font-size="28" font-weight="700">Execution gates</text>
  <text x="940" y="253" fill="#8CC7FF" font-family="Inter, Arial, sans-serif" font-size="24" font-weight="700">4</text>
  <rect x="520" y="308" width="520" height="84" rx="22" fill="#12213A" stroke="#223A61" stroke-width="2"/>
  <text x="556" y="357" fill="#F6FAFF" font-family="Inter, Arial, sans-serif" font-size="28" font-weight="700">Owner checklist</text>
  <text x="922" y="357" fill="#8CC7FF" font-family="Inter, Arial, sans-serif" font-size="24" font-weight="700">6</text>
  <rect x="520" y="412" width="520" height="76" rx="22" fill="#1B6CF2"/>
  <text x="570" y="459" fill="#FFFFFF" font-family="Inter, Arial, sans-serif" font-size="26" font-weight="700">Browser tool safety planning</text>
  <text x="86" y="592" fill="#AFC2DF" font-family="Inter, Arial, sans-serif" font-size="20" font-weight="500">Deterministic static demo • browser task inventory → gate matrix → action brief</text>
</svg>
