<svg width="1200" height="630" viewBox="0 0 1200 630" fill="none" xmlns="http://www.w3.org/2000/svg">
  <rect width="1200" height="630" rx="32" fill="#F3F6F2"/>
  <rect x="54" y="52" width="1092" height="526" rx="28" fill="#FFFFFF" stroke="#D8E0D9"/>
  <rect x="86" y="88" width="184" height="44" rx="12" fill="#18231D"/>
  <text x="108" y="117" fill="white" font-family="Inter, Arial, sans-serif" font-size="22" font-weight="700">MergePulse</text>
  <text x="86" y="182" fill="#0B7654" font-family="Inter, Arial, sans-serif" font-size="18" font-weight="800" letter-spacing="1.2">DETERMINISTIC DEMO SIMULATION</text>
  <text x="86" y="238" fill="#18231D" font-family="Inter, Arial, sans-serif" font-size="54" font-weight="800">PR merge readiness radar</text>
  <text x="86" y="286" fill="#5F7069" font-family="Inter, Arial, sans-serif" font-size="24" font-weight="500">Turn each pull request into a risk matrix, owner map, and merge checklist.</text>

  <rect x="86" y="348" width="300" height="176" rx="20" fill="#EEF3EF" stroke="#D8E0D9"/>
  <text x="112" y="388" fill="#18231D" font-family="Inter, Arial, sans-serif" font-size="20" font-weight="800">Readiness score</text>
  <text x="112" y="444" fill="#0B7654" font-family="Inter, Arial, sans-serif" font-size="66" font-weight="800">84</text>
  <text x="196" y="438" fill="#5F7069" font-family="Inter, Arial, sans-serif" font-size="20" font-weight="600">/ 100</text>
  <rect x="112" y="474" width="244" height="14" rx="7" fill="#D8E0D9"/>
  <rect x="112" y="474" width="198" height="14" rx="7" fill="#0B7654"/>

  <rect x="418" y="348" width="310" height="176" rx="20" fill="#FBFCFA" stroke="#D8E0D9"/>
  <text x="444" y="388" fill="#18231D" font-family="Inter, Arial, sans-serif" font-size="20" font-weight="800">Risk matrix</text>
  <rect x="444" y="414" width="120" height="34" rx="10" fill="#F3D8D8"/>
  <text x="468" y="436" fill="#B23A3A" font-family="Inter, Arial, sans-serif" font-size="16" font-weight="700">critical</text>
  <rect x="578" y="414" width="98" height="34" rx="10" fill="#E5F3EC"/>
  <text x="598" y="436" fill="#0B7654" font-family="Inter, Arial, sans-serif" font-size="16" font-weight="700">review</text>
  <text x="444" y="486" fill="#5F7069" font-family="Inter, Arial, sans-serif" font-size="18" font-weight="500">Owners, actions, and merge blockers in one deterministic brief.</text>

  <rect x="748" y="348" width="366" height="176" rx="20" fill="#EEF3EF" stroke="#D8E0D9"/>
  <text x="774" y="388" fill="#18231D" font-family="Inter, Arial, sans-serif" font-size="20" font-weight="800">Action checklist</text>
  <circle cx="790" cy="428" r="8" fill="#0B7654"/>
  <circle cx="790" cy="460" r="8" fill="#A86600"/>
  <circle cx="790" cy="492" r="8" fill="#275F9F"/>
  <text x="812" y="434" fill="#18231D" font-family="Inter, Arial, sans-serif" font-size="17" font-weight="600">Assign reviewer owner</text>
  <text x="812" y="466" fill="#18231D" font-family="Inter, Arial, sans-serif" font-size="17" font-weight="600">Run smoke tests</text>
  <text x="812" y="498" fill="#18231D" font-family="Inter, Arial, sans-serif" font-size="17" font-weight="600">Publish merge brief</text>
</svg>
