<svg width="1200" height="675" viewBox="0 0 1200 675" fill="none" xmlns="http://www.w3.org/2000/svg" role="img" aria-label="Secret Exposure Response Planner cover">
  <defs>
    <linearGradient id="bg" x1="120" y1="40" x2="1080" y2="620" gradientUnits="userSpaceOnUse">
      <stop stop-color="#1A1F24"/>
      <stop offset="1" stop-color="#2A1518"/>
    </linearGradient>
    <linearGradient id="panel" x1="180" y1="120" x2="1020" y2="560" gradientUnits="userSpaceOnUse">
      <stop stop-color="#2E3740"/>
      <stop offset="1" stop-color="#1B2025"/>
    </linearGradient>
    <linearGradient id="accent" x1="420" y1="140" x2="870" y2="560" gradientUnits="userSpaceOnUse">
      <stop stop-color="#F4B22E"/>
      <stop offset="1" stop-color="#D95845"/>
    </linearGradient>
    <filter id="shadow" x="122" y="72" width="956" height="530" filterUnits="userSpaceOnUse" color-interpolation-filters="sRGB">
      <feDropShadow dx="0" dy="24" stdDeviation="26" flood-color="#000000" flood-opacity="0.28"/>
    </filter>
  </defs>

  <rect width="1200" height="675" fill="url(#bg)"/>
  <rect x="126" y="78" width="948" height="520" rx="32" fill="url(#panel)" filter="url(#shadow)"/>

  <circle cx="210" cy="168" r="46" fill="#F4B22E" fill-opacity="0.18"/>
  <circle cx="990" cy="150" r="60" fill="#D95845" fill-opacity="0.12"/>
  <path d="M884 186L936 274H832L884 186Z" fill="#F4B22E" fill-opacity="0.16"/>
  <path d="M244 398L304 286L364 398H244Z" fill="#D95845" fill-opacity="0.12"/>

  <g transform="translate(206 206)">
    <rect x="0" y="0" width="282" height="214" rx="24" fill="#0F1418" stroke="#3A434A" stroke-width="2"/>
    <rect x="24" y="24" width="126" height="18" rx="9" fill="#25313A"/>
    <rect x="24" y="58" width="192" height="18" rx="9" fill="#39444D"/>
    <rect x="24" y="86" width="210" height="18" rx="9" fill="#39444D"/>
    <rect x="24" y="114" width="170" height="18" rx="9" fill="#39444D"/>
    <rect x="24" y="156" width="92" height="34" rx="17" fill="#F4B22E"/>
    <rect x="128" y="156" width="108" height="34" rx="17" fill="#25313A"/>
    <circle cx="232" cy="166" r="22" fill="#D95845"/>
    <path d="M226 166L232 160L238 166L232 172L226 166Z" fill="#0F1418"/>
  </g>

  <g transform="translate(548 160)">
    <path d="M70 0L140 80H0L70 0Z" fill="#F4B22E"/>
    <rect x="36" y="92" width="68" height="126" rx="34" fill="#D95845"/>
    <rect x="14" y="112" width="112" height="22" rx="11" fill="#F3D7A3"/>
    <rect x="14" y="144" width="112" height="22" rx="11" fill="#F3D7A3"/>
    <rect x="14" y="176" width="82" height="22" rx="11" fill="#F3D7A3"/>
  </g>

  <g transform="translate(690 228)">
    <rect x="0" y="0" width="268" height="186" rx="22" fill="#11171C" stroke="#40505A" stroke-width="2"/>
    <rect x="20" y="22" width="118" height="18" rx="9" fill="#2D3942"/>
    <rect x="20" y="58" width="220" height="18" rx="9" fill="#39444D"/>
    <rect x="20" y="92" width="196" height="18" rx="9" fill="#39444D"/>
    <rect x="20" y="126" width="150" height="18" rx="9" fill="#39444D"/>
    <rect x="20" y="152" width="106" height="14" rx="7" fill="url(#accent)"/>
  </g>

  <text x="180" y="515" fill="#FFFFFF" font-family="Inter, ui-sans-serif, system-ui, sans-serif" font-size="52" font-weight="800">Secret Exposure Response Planner</text>
  <text x="180" y="560" fill="#D6DBE0" font-family="Inter, ui-sans-serif, system-ui, sans-serif" font-size="22" font-weight="600">Deterministic incident response for secret scanning alerts, owner maps, containment, and export.</text>
</svg>
